<?xml version="1.0" encoding="utf-8"?>
<!-- Generator: Adobe Illustrator 15.0.0, SVG Export Plug-In . SVG Version: 6.00 Build 0)  -->
<!DOCTYPE svg PUBLIC "-//W3C//DTD SVG 1.1//EN" "http://www.w3.org/Graphics/SVG/1.1/DTD/svg11.dtd">
<svg version="1.1" id="Layer_1" xmlns="http://www.w3.org/2000/svg" xmlns:xlink="http://www.w3.org/1999/xlink" x="0px" y="0px"
	 width="600px" height="400px" viewBox="0 0 600 400" enable-background="new 0 0 600 400" xml:space="preserve">
<path   fill="none" stroke="#00AEEF" stroke-width="1.0367" stroke-linecap="round" d="
	M416.771,109.869c3.298-10.166,10.084-19.825,19.993-24.404c6.103,2.554,11.009,7.471,15.201,12.581"/>
<path   fill="none" stroke="#EF4136" stroke-width="1.1855" stroke-linecap="round" d="
	M445.717,111.918c1.74-4.843,4.221-9.261,6.249-13.872c2.58-2.307,4.318-6.17,7.739-7.711c9.114,2.579,15.041,12.364,19.871,20.155"
	/>
<path   fill="none" stroke="#00AEEF" stroke-width="1.0367" stroke-linecap="round" d="
	M475.59,124.19c0.448-4.788,2.625-9.182,3.986-13.7c1.901-1.325,2.176-4.115,4.122-5.407c7.783,3.633,11.179,12.697,15.318,19.471"
	/>
<path   fill="none" stroke="#EF4136" stroke-width="1.1855" stroke-linecap="round" d="
	M423.232,145.038c0.034-0.013,0.069-0.025,0.104-0.038c3.04-6.582,1.173-14.315,0.173-21.148c-2.186-4.668-4.506-9.333-6.737-13.982
	c-3.095-2.627-3.251-3.947-7.664-1.257c-11.414,6.959-20.76,27.563-21.209,39.155"/>
<path   fill="none" stroke="#00AEEF" stroke-width="1.0367" stroke-linecap="round" d="
	M456.309,158.437c2.416-8.844,2.603-18.237,0.352-27.155c-3.037-6.832-6.76-13.155-10.943-19.364
	c-8.557-3.782-16.324,6.626-22.208,11.934"/>
<path   fill="none" stroke="#EF4136" stroke-width="1.1855" stroke-linecap="round" d="
	M496.742,161.85c-0.967-4.68-2.346-9.484-3.103-14.271c-4.726-8.4-10.445-16.848-18.05-23.389c-2.718-1.181-4.588-3.62-7.42-4.333
	c-4.735,2.74-7.834,7.571-11.51,11.425"/>
<path   fill="none" stroke="#39B54A" stroke-width="1.093" stroke-linecap="round" d="
	M513.269,178.038c4.055-4.052,4.058-10.609,5.438-15.816c0.208-15.087-6.195-29.836-17.619-39.5
	c-0.873,0.376-1.242,1.397-2.07,1.831c-3.897,6.98-4.862,15.196-5.377,23.026"/>
<path   fill="none" stroke="#00AEEF" stroke-width="1.0367" stroke-linecap="round" d="
	M428.533,161.478c-1.445-5.525-3.794-11.008-5.301-16.439c-3.39-3.618-4.992-8.897-9.237-11.964
	c-9.211,4.797-14.344,15.177-18.162,24.282"/>
<path   fill="none" stroke="#39B54A" stroke-width="1.093" stroke-linecap="round" d="
	M404.144,187.062c-0.062-10.455-2.903-20.81-8.311-29.707c-2.829-2.937-5.528-6.273-7.935-9.589c-1.1-0.154-1.728-1.487-2.861-1.383
	c-7.553,12.321-8.767,27.66-5.562,41.525"/>
<path   fill="none" stroke="#EF4136" stroke-width="1.1855" stroke-linecap="round" d="
	M475.543,182.428c-5.007-8.843-11.631-17.077-19.234-23.991c-4.657-2.517-8.742-6.332-13.975-7.882
	c-5.294,2.593-9.173,7.328-13.801,10.923c-4.98,7.109-9.252,14.585-11.623,23.122"/>
<path   fill="none" stroke="#00AEEF" stroke-width="1.0367" stroke-linecap="round" d="
	M509.771,208.073c4.786-9.073,5.62-20.008,3.497-30.035c-2.747-6.575-6.41-15.349-13.567-17.732
	c-0.928,0.542-1.882,1.205-2.959,1.544c-7.961,5.687-15.457,12.535-21.199,20.579c-2.332,4.647-4.941,9.178-6.411,14.271"/>
<path   fill="none" stroke="#EF4136" stroke-width="1.1855" stroke-linecap="round" d="
	M520.752,203.984c2.57-4.819,5.161-9.908,5.979-15.455c0-1.93,0-3.861,0-5.791c-1.087-7.168-2.354-15.482-8.024-20.516"/>
<path   fill="none" stroke="#EF4136" stroke-width="1.1855" stroke-linecap="round" d="
	M431.49,223.999c2.107-5.984,6.777-10.69,10.135-15.926c7.803-6.491,16.346-18.019,27.507-11.375
	c10.767,4.667,21.687,9.692,29.574,18.821"/>
<path   fill="none" stroke="#00AEEF" stroke-width="1.0367" stroke-linecap="round" d="
	M407.706,230.41c-7.184-5.665-14.346-13.291-13.588-23.019c1.437-7.564,5.024-14.446,10.025-20.329
	c2.161-1.016,3.455-3.247,5.503-4.475c2.549-0.683,4.785,1.613,7.264,2.012c9.584,5.866,17.811,14.454,24.715,23.474"/>
<path   fill="none" stroke="#EF4136" stroke-width="1.1855" stroke-linecap="round" d="
	M394.118,207.392c-5.114-6.223-9.395-13.314-14.643-19.483c-1.291,0.069-1.917-1.756-3.208-1.297
	c-0.699,1.241-0.288,2.742-0.929,3.986c0,4.412,0,8.824,0,13.236c2.267,9.676,8.229,17.627,15.079,24.555"/>
<path   fill="none" stroke="#39B54A" stroke-width="1.093" stroke-linecap="round" d="
	M507.289,232.375c9.072-6.861,15.368-16.956,17.286-28.131c-1.042-1.088-2.623,0.276-3.823-0.26
	c-3.617,1.408-7.236,3.121-10.98,4.089c-3.519,2.685-7.347,4.977-11.065,7.446c-1.692,2.943-3.524,5.682-5.17,8.686"/>
<path   fill="none" stroke="#EF4136" stroke-width="1.1855" stroke-linecap="round" d="
	M489.669,249.996c6.812-4.133,13.539-8.965,18.458-15.318c0.149-0.91-0.861-1.414-0.838-2.303c-4.016-3.752-8.984-5.823-13.753-8.17
	c-5.024-1.121-9.84-3.454-15.021-3.832c-7.157,5.665-12.352,13.619-16.105,21.723c-0.679,2.78-1.735,5.506-1.965,8.376
	c1.064,1.537,3.412,1.393,4.757,2.688c4.578,0.854,9.304,0.542,13.896,0.564"/>
<path   fill="none" stroke="#39B54A" stroke-width="1.093" stroke-linecap="round" d="
	M460.445,250.472c-6.846,3.972-14.639,6.376-22.646,6.032c-5.022-0.888-9.619-2.976-14.152-5.043
	c-6.411-5.425-12.4-11.95-16.705-19.334l0.765-1.717c6.84-4.916,15.577-5.891,23.784-6.411c11.755,3.109,22.272,9.481,30.92,18.097"
	/>
<path   fill="none" stroke="#000000" stroke-width="1.1247" stroke-linecap="round" d="
	M412.792,252.079c0.832,15.699,19.979,12.454,25.505,22.75c5.035,9.382,0.687,22.072,4.828,32.865
	c2.133,1.827,4.713,3.08,7.496,3.686"/>
<path   fill="none" stroke="#000000" stroke-width="1.2733" stroke-linecap="round" d="
	M450.621,311.38c1.241,0,2.481,0,3.723,0"/>
<path   fill="none" stroke="#00AEEF" stroke-width="1.0367" stroke-linecap="round" d="
	M423.646,251.461c-0.763,0.381-1.205,0.581-1.911,1.113c-2.926-0.563-6.062-0.28-8.943-0.495
	c-11.782-1.943-22.304-11.075-24.607-22.868c0.505-0.741,1.553-0.401,2.233-0.822c5.679,0.269,11.127,2.029,16.523,3.738"/>
<path   fill="none" stroke="#000000" stroke-width="1.0887" stroke-linecap="round" d="
	M421.735,252.574c6.895,3.562,10.921,10.889,17.335,15.027c0.718-3.5-1.044-7.428-1.271-11.098"/>
<path   fill="none" stroke="#000000" stroke-width="1.1451" stroke-linecap="round" d="
	M465.202,253.16c-0.07,5.61-1.177,11.191-0.786,16.791c6.165-3.651,7.653-12.933,14.683-16.227c3.385-1.468,7.043-2.539,10.57-3.729
	c1.026,8.537-6.483,16.654-14.228,19.191c-4.599,1.507-7.288,4.045-10.946,8.359c-0.626,9.761-0.89,19.593-1.727,29.305
	c-2.144,2.483-5.352,3.681-8.425,4.528"/>
</svg>
