<?xml version="1.0" encoding="utf-8"?>
<!-- Generator: Adobe Illustrator 15.0.0, SVG Export Plug-In . SVG Version: 6.00 Build 0)  -->
<!DOCTYPE svg PUBLIC "-//W3C//DTD SVG 1.1//EN" "http://www.w3.org/Graphics/SVG/1.1/DTD/svg11.dtd">
<svg version="1.1" id="Layer_1" xmlns="http://www.w3.org/2000/svg" xmlns:xlink="http://www.w3.org/1999/xlink" x="0px" y="0px"
	 width="600px" height="400px" viewBox="0 0 600 400" enable-background="new 0 0 600 400" xml:space="preserve">
<path fill="none" stroke="#000000" stroke-width="2" stroke-miterlimit="10" d="M366.77,42.958c0,0-19.646,18.797-30.81,25.751
	c-15.699,9.78-21.923,2.596-37.266,0c-43.924-7.43-83.294,2.718-117.243,33.109c-26.023,23.296-40.65,75.416-35.574,110.364
	s34.932,74.265,48.063,86.083c14.378,12.94,55.93,35.154,65.933,38.615c19.289,6.673,42.977,10.496,63.21,10.956
	c19.314,0,68.038-10.751,98.849-48.134s25.291-47.254,30.811-70.245c2.464-21.567-6.979-54.6-21.979-78.463
	c-7.512-11.948-30.426-35.84-47.44-55.614c-1.839-2.299-12.671-14.349-8.992-19.408c1.479-2.071,6.288-2.847,6.288-2.847
	l0.102-3.948c0,0,1.223-3.228,2.143-3.228c-0.46-0.919-0.92-2.759-1.839-3.219c3.679-0.46,8.277-0.46,9.656-4.139
	c-1.379,0-2.759-0.46-3.679-0.46c0.962-2.032,1.655-3.342,1.655-3.342s-3.229-0.706-4.236-1.771
	c-0.717-0.759,0.533-1.703,1.078-2.696c-1.447,0.557-2.618-0.539-2.618-0.539l1.386-3.697l-7.779-0.848l-3.466-2.624L366.77,42.958z
	"/>
<path fill="none" stroke="#000000" stroke-miterlimit="10" d="M344.087,93.483"/>
<path fill="none" stroke="#000000" stroke-miterlimit="10" d="M349.428,98.824c0,0-74.355,200.267-116.256,218.955"/>
<path fill="none" stroke="#000000" stroke-miterlimit="10" d="M342.854,99.029c0,0-107.628,196.977-114.612,213.82"/>
<path fill="none" stroke="#000000" stroke-miterlimit="10" d="M336.898,97.796c0,0-58.539,57.717-74.56,92.224
	s-42.312,99.413-38.615,118.721"/>
<path fill="none" stroke="#000000" stroke-miterlimit="10" d="M329.709,93.483c0,0-64.906,48.885-87.089,87.089
	s-28.756,101.057-25.059,121.596"/>
<path fill="none" stroke="#000000" stroke-miterlimit="10" d="M353.535,100.877c0,0-11.502,89.143-30.81,122.829
	c-19.308,33.685-61.62,87.5-80.105,95.716"/>
<path fill="none" stroke="#000000" stroke-miterlimit="10" d="M325.602,90.197c0,0-78.345,38.615-102.23,85.035
	c-23.885,46.42-19.777,103.933-13.615,124.472"/>
<path fill="none" stroke="#000000" stroke-miterlimit="10" d="M321.288,87.938c0,0-86.127,28.551-116.288,82.365
	c-30.161,53.813-2.227,126.114-2.227,126.114"/>
<path fill="none" stroke="#000000" stroke-miterlimit="10" d="M316.153,85.473c0,0-96.538,24.031-121.186,75.382
	c-24.648,51.349-4.93,109.271,0,131.454"/>
<path fill="none" stroke="#000000" stroke-miterlimit="10" d="M314.51,80.749c0,0-94.483,24.647-117.899,53.403
	c-23.416,28.756-39.436,65.902-7.394,153.228"/>
<path fill="none" stroke="#000000" stroke-miterlimit="10" d="M356.822,100.877c0,0,7.394,91.607-16.844,137.206
	c-24.236,45.599-90.485,84.625-90.485,84.625"/>
<path fill="none" stroke="#000000" stroke-miterlimit="10" d="M360.93,100.877c0,0,31.29,79.695-3.046,144.19
	S257.82,325.173,257.82,325.173"/>
<path fill="none" stroke="#000000" stroke-miterlimit="10" d="M365.449,100.877c0,0,46.592,96.375,2.465,161.854
	c-38.205,56.69-102.614,64.495-102.614,64.495"/>
<path fill="none" stroke="#000000" stroke-miterlimit="10" d="M307.526,79.105c0,0-94.894,8.833-124.693,51.35
	c-24.357,34.753-33.463,87.911-5.94,142.135"/>
<path fill="none" stroke="#000000" stroke-miterlimit="10" d="M169.499,263.143c0,0-38.312-73.458,3.697-135.975
	c35.329-52.574,134.742-51.76,134.331-52.171"/>
<path fill="none" stroke="#000000" stroke-miterlimit="10" d="M298.983,70.889c0,0-110.521-8.47-146.088,78.952"/>
<path fill="none" stroke="#000000" stroke-miterlimit="10" d="M371.2,103.342c0,0,53.813,99.926,15.706,166.783
	c-21.408,37.561-70.003,55.893-119.141,61.21"/>
<path fill="none" stroke="#000000" stroke-miterlimit="10" d="M376.129,103.342c0,0,59.565,99.926,30.81,157.746
	c-32.092,64.525-88.057,65.522-126.804,74.56"/>
<path fill="none" stroke="#000000" stroke-miterlimit="10" d="M380.237,105.396c24.647,34.507,64.905,94.658,42.312,147.476
	c-26.3,61.484-82.569,80.927-131.249,85.035"/>
<path fill="none" stroke="#000000" stroke-miterlimit="10" d="M386.906,107.45c59.469,65.728,65.309,126.796,33.178,173.767
	c-32.13,46.971-95.92,59.729-114.612,61.209"/>
<path fill="none" stroke="#000000" stroke-miterlimit="10" d="M391.328,107.45c98.592,102.699,51.761,217.723-59.154,234.976"/>
<path fill="none" stroke="#000000" stroke-miterlimit="10" d="M200.521,303.52c0,0,5.949,13.437,12.522,14.259
	c6.573,0.822-1.527,4.52,3.549,5.957c5.077,1.438,5.899,1.438,5.899,1.438s-0.206,3.286,2.259,3.697s6.162-1.027,9.859,0
	c3.697,1.027,0.822,4.108,3.697,5.341c2.876,1.232,2.876-1.439,6.984,1.437c4.108,2.877-0.221,3.698,4.203,4.314
	c4.424,0.616,3.324,0,6.647-0.616c3.323-0.616,11.625,0.039,11.625,0.039"/>
<path fill="none" stroke="#000000" stroke-miterlimit="10" d="M214.48,321.887c-5.135,0-12.94,0.616-16.227-4.313"/>
<path fill="none" stroke="#000000" stroke-miterlimit="10" d="M208.935,316.547c-4.93-0.822-8.627,5.34-10.681,9.242"/>
<path fill="none" stroke="#000000" stroke-miterlimit="10" d="M211.605,318.806c-0.411,6.162,2.259,12.324,2.465,18.486"/>
<path fill="none" stroke="#000000" stroke-miterlimit="10" d="M214.891,323.529c-10.68,0.616-11.708,19.514-11.913,27.113"/>
<path fill="none" stroke="#000000" stroke-miterlimit="10" d="M216.74,324.557c0,11.708,0.411,22.8-4.724,33.686"/>
<path fill="none" stroke="#000000" stroke-miterlimit="10" d="M222.081,328.049c-7.6-0.411-15.405,2.875-23.005,3.902"/>
<path fill="none" stroke="#000000" stroke-miterlimit="10" d="M221.464,329.281c0,3.286,1.438,6.162,3.492,8.627"/>
<path fill="none" stroke="#000000" stroke-miterlimit="10" d="M227.832,329.281c-3.081,4.724-8.216,11.297-13.557,13.557"/>
<path fill="none" stroke="#000000" stroke-miterlimit="10" d="M229.27,329.075c2.054,7.601,5.545,15.2,9.859,21.979"/>
<path fill="none" stroke="#000000" stroke-miterlimit="10" d="M235.021,329.691c0,8.011-1.438,11.503-8.832,16.021
	c-3.492,2.055-10.681,6.162-14.994,4.725"/>
<path fill="none" stroke="#000000" stroke-miterlimit="10" d="M236.458,334.211c-0.616,18.28,21.773,19.308,34.302,15.815"/>
<path fill="none" stroke="#000000" stroke-miterlimit="10" d="M246.934,338.935c1.232,4.93,5.135,9.243,7.805,13.352
	c2.054,2.875,3.697,6.983,6.573,8.832"/>
<path fill="none" stroke="#000000" stroke-miterlimit="10" d="M263.366,339.141c2.259,5.751,2.875,11.913,3.081,17.869"/>
<path fill="none" stroke="#000000" stroke-miterlimit="10" d="M256.792,340.167c0,4.313-0.205,6.984,4.725,7.806"/>
<line fill="none" stroke="#000000" stroke-miterlimit="10" x1="251" y1="340.5" x2="251" y2="350.5"/>
<path fill="none" stroke="#000000" stroke-miterlimit="10" d="M254.328,339.551c0,4.725,0.822,10.065-0.41,14.378"/>
<path fill="none" stroke="#000000" stroke-miterlimit="10" d="M248.577,343.043c8.627,0,17.459-0.821,25.675,0.205"/>
<path fill="none" stroke="#000000" stroke-miterlimit="10" d="M205.443,343.248c5.751,0.411,12.118,1.644,17.664-0.205
	c3.492-1.027,6.573-3.081,9.448-5.135"/>
<path fill="none" stroke="#000000" stroke-miterlimit="10" d="M236.253,339.551c2.054-1.438,3.697-3.286,5.135-5.135"/>
<path fill="none" stroke="#000000" stroke-miterlimit="10" d="M242.62,344.07c2.465,0,4.93,0,6.984-1.644"/>
</svg>
