<?xml version="1.0" encoding="utf-8"?>
<!-- Generator: Adobe Illustrator 15.0.0, SVG Export Plug-In . SVG Version: 6.00 Build 0)  -->
<!DOCTYPE svg PUBLIC "-//W3C//DTD SVG 1.1//EN" "http://www.w3.org/Graphics/SVG/1.1/DTD/svg11.dtd">
<svg version="1.1" id="Layer_1" xmlns="http://www.w3.org/2000/svg" xmlns:xlink="http://www.w3.org/1999/xlink" x="0px" y="0px"
	 width="600px" height="400px" viewBox="0 0 600 400" enable-background="new 0 0 600 400" xml:space="preserve">
<path fill="none" stroke="#000000" stroke-width="2" stroke-linecap="round" d="M238.538,157.549
	c-3.709,2.012-1.673,8.439,2.585,8.09C244.037,163.526,242.496,157.508,238.538,157.549"/>
<path fill="none" stroke="#000000" stroke-width="2" stroke-linecap="round" d="M166.542,244.299
	c0.499,0.096,1.001,0.093,1.507,0.043c1.919-2.073,2.833-8.206-1.463-8.604c-2.359,0.912-2.208,3.789-1.992,5.852
	C165.167,242.275,165.373,242.904,166.542,244.299"/>
<path fill="none" stroke="#000000" stroke-width="2" stroke-linecap="round" d="M116.258,191.168
	c-3.648,1.342-1.8,8.168,1.999,7.918C120.821,196.895,120.291,191.312,116.258,191.168"/>
<path fill="none" stroke="#000000" stroke-width="2" stroke-linecap="round" d="M82.709,216.75c-3.647,1.342-1.799,8.168,2,7.919
	C87.272,222.478,86.743,216.895,82.709,216.75"/>
<path fill="none" stroke="#000000" stroke-width="2" stroke-linecap="round" d="M163.686,154.021
	c-3.648,1.342-1.8,8.168,1.999,7.919C168.249,159.749,167.718,154.166,163.686,154.021"/>
<path fill="none" stroke="#000000" stroke-width="2" stroke-linecap="round" d="M146.506,125.61c-3.647,1.342-1.799,8.168,2,7.919
	C151.069,131.337,150.54,125.754,146.506,125.61"/>
<path fill="none" stroke="#000000" stroke-width="2" stroke-linecap="round" d="M208.361,139.533
	c-3.647,1.342-1.8,8.168,1.999,7.919C212.923,145.26,212.393,139.677,208.361,139.533"/>
<path fill="none" stroke="#000000" stroke-width="2" stroke-linecap="round" d="M76.702,193.145
	c-3.648,1.342-1.801,8.168,1.998,7.92C81.264,198.873,80.733,193.289,76.702,193.145"/>
<path fill="none" stroke="#000000" stroke-width="2" stroke-linecap="round" d="M154.243,291.689
	c-3.648,1.342-1.8,8.168,1.999,7.918C158.805,297.416,158.275,291.834,154.243,291.689"/>
<path fill="none" stroke="#000000" stroke-width="2" stroke-linecap="round" d="M178.278,300.831
	c-3.648,1.342-1.801,8.168,1.998,7.918C182.84,306.558,182.309,300.976,178.278,300.831"/>
<path fill="none" stroke="#000000" stroke-width="2" stroke-linecap="round" d="M201.127,183.395
	c1.875-1.353,2.326-3.756,2.492-5.903c-0.549-1.267-2.018-1.843-2.947-2.16C196.879,176.012,197.765,182.41,201.127,183.395"/>
<path fill="none" stroke="#000000" stroke-width="2" stroke-linecap="round" d="M132.927,164.262
	c1.875-1.353,2.325-3.756,2.492-5.904c-0.55-1.266-2.019-1.842-2.948-2.16C128.679,156.879,129.565,163.277,132.927,164.262"/>
<path fill="none" stroke="#000000" stroke-width="2" stroke-linecap="round" d="M221.861,197.557
	c-2.032-1.848-3.349-4.564-2.175-7.264c0.898-1.509,3.322-2.255,4.519-0.693c0.263,0.399,0.603,0.877,0.947,1.358
	C225.145,193.364,224.567,196.77,221.861,197.557"/>
<path fill="none" stroke="#000000" stroke-width="2" stroke-linecap="round" d="M90.562,251.215
	c-1.783-1.963-1.873-5.584,0.541-7.127c1.547,0.014,2.397,0.821,3.143,1.267c1.436,2.093,0.546,5.468-1.273,6.927
	C92.22,252.283,91.431,251.779,90.562,251.215"/>
<path fill="none" stroke="#000000" stroke-width="2" stroke-linecap="round" d="M155.202,190.195
	c1.095,0.912,1.248,3.485,3.318,3.182c2.48-1.523,3.482-5.842,0.997-7.938C156.716,183.725,154.393,187.764,155.202,190.195"/>
<path fill="none" stroke="#000000" stroke-width="2" stroke-linecap="round" d="M110.173,233.522
	c-1.462-1.509-2.419-4.788-0.401-6.206c0.98-0.229,2.01,0.069,2.903,0.338c1.795,1.734,2.136,5.056,0.788,7.06
	C112.327,234.855,111.358,234.374,110.173,233.522"/>
<path fill="none" stroke="#000000" stroke-width="2" stroke-linecap="round" d="M140.422,222.249
	c-1.463-1.509-2.42-4.788-0.401-6.206c0.979-0.229,2.01,0.069,2.903,0.338c1.795,1.734,2.136,5.056,0.787,7.06
	C142.576,223.582,141.606,223.101,140.422,222.249"/>
<path fill="none" stroke="#000000" stroke-width="2" stroke-linecap="round" d="M206.266,218.718c1.448,1.269,2.911,3.8,5.18,3.298
	c1.028-2.047,1.029-5.081-0.383-6.943c-0.635-0.308-1.572-0.559-2.408-0.731C206.575,214.468,205.809,216.992,206.266,218.718"/>
<path fill="none" stroke="#000000" stroke-width="2" stroke-linecap="round" d="M181.643,212.586
	c-0.933-1.047-1.502-2.055-2.227-2.648c-0.706-1.859-0.404-4.51,1.68-5.332c1.086-0.064,2.398,0.533,2.892,1.008
	C185.372,208.008,184.938,212.062,181.643,212.586"/>
<path fill="none" stroke="#000000" stroke-width="2" stroke-linecap="round" d="M138.287,248.185
	c-4.121,2.066-1.019,9.387,3.163,8.297C142.369,253.491,141.92,249.087,138.287,248.185"/>
<path fill="none" stroke="#000000" stroke-width="2" stroke-linecap="round" d="M188.099,256.885c0.933,1.58,2.53,3.243,4.543,3.066
	c2.123-1.676,1.403-4.431,0.452-6.514c-0.833-0.726-2.126-0.988-3.171-1.05C187.834,252.92,187.937,255.199,188.099,256.885"/>
<path fill="none" stroke="#000000" stroke-width="2" stroke-linecap="round" d="M116.914,258.379
	c-3.873,1.883-0.765,8.298,3.026,7.586C122.081,263.545,120.819,258.062,116.914,258.379"/>
<path fill="none" stroke="#000000" stroke-width="2" stroke-linecap="round" d="M185.599,287.385
	c-1.104-1.893-1.151-4.339-0.185-6.262c0.728-1.016,2.664-1.703,3.635-1.812c1.419,0.707,2.025,2.576,1.89,3.532
	C190.057,285.156,187.886,286.63,185.599,287.385"/>
<path fill="none" stroke="#000000" stroke-width="2" stroke-linecap="round" d="M230.637,239.178
	c-1.504-1.594-2.102-3.967-1.594-6.059c0.479-1.153,2.209-2.26,3.131-2.586c1.543,0.369,2.555,2.053,2.639,3.016
	C234.477,236,232.694,237.926,230.637,239.178"/>
<path fill="none" stroke="#000000" stroke-width="2" stroke-linecap="round" d="M207.955,258.366
	c-1.503-1.594-2.102-3.967-1.594-6.059c0.479-1.153,2.21-2.26,3.132-2.586c1.542,0.369,2.554,2.053,2.638,3.016
	C211.794,255.188,210.012,257.114,207.955,258.366"/>
<path fill="none" stroke="#000000" stroke-width="2" stroke-linecap="round" d="M129.391,269.964
	c-5.756,0.725-1.254,8.464,3.014,7.398C134.762,274.888,132.141,270.978,129.391,269.964"/>
<path fill="none" stroke="#000000" stroke-width="2" stroke-linecap="round" d="M160.723,266.709
	c-5.756,0.725-1.254,8.464,3.014,7.398C166.094,271.633,163.473,267.723,160.723,266.709"/>
<path fill="none" stroke="#000000" stroke-width="2" stroke-linecap="round" d="M98.784,164.704
	c1.134,2.522-2.909,5.098-5.866,4.591c-1.573-2.397-0.75-6.176,1.532-6.924C97.424,161.395,97.602,162.077,98.784,164.704z"/>
<path fill="none" stroke="#000000" stroke-width="2" stroke-linecap="round" d="M86.312,138.636
	c-48.044,36.778-13.894,109.479,11.03,130.389c22.48,18.859,43.869,46.255,75.16,49.68c31.373,3.434,39.069-22.16,51.875-44.284
	c14.904-25.753,62.223-158.035-30.828-166.601"/>
<path fill="none" stroke="#000000" stroke-width="2" stroke-linecap="round" d="M100.933,125.61
	c-25.435-4.291-41.036-21.907-53.413-33.189c40.889-3.704,57.246-7.661,92.227,13.974"/>
<path fill="none" stroke="#000000" stroke-width="2" stroke-linecap="round" d="M151.325,34.13
	c-14.646,22.255-31.066,44.536-9.465,72.663"/>
<path fill="none" stroke="#000000" stroke-width="2" stroke-linecap="round" d="M113.933,128.719
	c-11.324,7.243-25.742,8.068-37.713,13.542c-4.336,1.982-6.873,5.324-10.931,7.791c-3.956,2.405-10.881,3.41-16.023,4
	c8.568-7.706,19.418-11.916,29.342-17.332c3.762-2.052,7.92-3.414,11.59-5.667c1.816-1.116,5.386-4.744,7.402-5.443"/>
<path fill="none" stroke="#000000" stroke-width="2" stroke-linecap="round" d="M152.124,34.529
	c11.443,19.839,23.662,44.234,5.988,67.074"/>
<path fill="none" stroke="#000000" stroke-width="2" stroke-linecap="round" d="M113.933,128.719
	c3.661-2.605,12.669-10.909,22.109-13.69c5.694-1.678,11.997-1.652,17.896-1.643c4.16,0.007,16.874,0.783,20.144-2"/>
<path fill="none" stroke="#000000" stroke-width="2" stroke-linecap="round" d="M157.997,106.793
	c6.6-10.229,70.869-25.741,76.816-46.921"/>
<path fill="none" stroke="#000000" stroke-width="2" stroke-linecap="round" d="M234.813,59.873
	c-0.021,29.101-34.037,51.384-60.73,51.513"/>
</svg>
