<?xml version="1.0" encoding="utf-8"?>
<!-- Generator: Adobe Illustrator 15.0.0, SVG Export Plug-In . SVG Version: 6.00 Build 0)  -->
<!DOCTYPE svg PUBLIC "-//W3C//DTD SVG 1.1//EN" "http://www.w3.org/Graphics/SVG/1.1/DTD/svg11.dtd">
<svg version="1.1" id="Layer_1" xmlns="http://www.w3.org/2000/svg" xmlns:xlink="http://www.w3.org/1999/xlink" x="0px" y="0px"
	 width="600px" height="400px" viewBox="0 0 600 400" enable-background="new 0 0 600 400" xml:space="preserve">
<path fill="#FFFFFF" stroke="#000000" stroke-miterlimit="10" d="M190.851,122.727c0.216-0.003,0.432-0.005,0.649-0.005
	c0.269,0,0.537,0.002,0.804,0.007"/>
<path fill="none" stroke="#000000" stroke-miterlimit="10" d="M194.5,275.5c4.59-26.601-63.028-30.08-78.323-31.621
	c-12.198-1.229-17.277-0.989-25.322-10.614c-12.427-14.868-20.895-34.932-24.578-53.802c-2.678-13.72-7.685-85.43,24.141-71.114
	c7.3,3.284,13.787,20.962,17.435,27.001c8.424,13.944,18.099,26.895,28.173,39.673c7.764,9.849,16.94,25.029,30.12,28.401
	c-0.007-3.584-2.283-5.681-3.58-9.59c-6.479-19.53-6.06-39.012-6.234-59.518c-0.157-18.486-6.069-86.283,25.226-84.263
	c21.405,1.382,41.938,26.307,43.043,46.314c1.068,19.337,1.686,40.782-0.363,60.008c1.708-20.592,38.565-42.778,54.554-51.615
	c8.296-4.584,32.296-18.013,41.565-9.853c1.452,6.39,2.138,12.872,2.057,19.443c0.59,13.793,1.986,29.672-1.868,43.144
	c-4.727,16.525-18.913,31.99-31.62,43.315c3.713-0.073,7.207-1.219,10.483-3.437c20.086-6.839,39.456-14.674,60.424-18.666
	c11.401-2.171,22.978-3.527,34.583-3.357c2.142,25.459-25.059,45.962-26.962,70.915c10.275,1.947,30.034,6.276,39.198-0.068
	c5.289,17.499,4.472,34.426-11.523,43.288c-27.541,15.261-116.954,34.288-116.772-18.764c-4.688-0.38-10.05-0.228-14.856-0.222"/>
<path fill="none" stroke="#000000" stroke-miterlimit="10" d="M441.5,119.5c-12.074-0.009-26.972-3.943-32.11,9.503
	c-2.951,7.722-0.125,15.333,7.441,18.838c8.685,4.025,32.794,3.684,38.707-5.413c4.292-6.604,0.962-22.11,0.962-29.929"/>
<path fill="none" stroke="#000000" stroke-miterlimit="10" d="M373.5,74.5c-5.983,0.025-12.177-0.315-18.004,0.31
	c0.461,13.202-2.484,26.288-1.913,39.523c13.035,6.805,43.511,5.772,43.917-13.833"/>
<path fill="none" stroke="#000000" stroke-miterlimit="10" d="M179.5,27.5c-6.591-2.036-26.139-1.395-15.872,7.246
	c6.106,5.139,26.832,4.328,34.766,3.607c-0.829-3.83-3.89-6.477-5.894-9.853"/>
<path fill="none" stroke="#000000" stroke-miterlimit="10" d="M76.5,57.5c-15.236,5.561-45.561,22.514-20.219,34.31
	c9.781,4.553,35.235,5.53,32.219-11.31"/>
<path fill="none" stroke="#000000" stroke-miterlimit="10" d="M451.5,203.5c-16.843-0.484-43.312,3.727-50.104,23.023
	c-3.813,10.838,9.889,15.077,19.601,19.432c13.548,6.076,55.867,18.643,42.504-8.455"/>
</svg>
